<svg width="35.000000" height="35.000000" viewBox="0 0 35 35" fill="none" xmlns="http://www.w3.org/2000/svg" xmlns:xlink="http://www.w3.org/1999/xlink">
	<desc>
			Created with Pixso.
	</desc>
	<defs>
		<clipPath id="clip105_465">
			<rect id="Icon" rx="-0.500000" width="34.000000" height="34.000000" transform="matrix(1 0 0 -1 0.5 35.5)" fill="white" fill-opacity="0"/>
		</clipPath>
	</defs>
	<g clip-path="url(#clip105_465)">
		<path id="Vector" d="M31.73 4.31L3.26 4.31C2.33 4.31 1.55 4.64 0.93 5.3C0.31 5.96 0 6.76 0 7.7L0 27.3C0 28.23 0.31 29.03 0.93 29.69C1.55 30.35 2.33 30.68 3.26 30.68L31.73 30.68C32.66 30.68 33.44 30.35 34.06 29.69C34.68 29.03 35 28.23 35 27.3L35 7.7C35 6.76 34.68 5.96 34.06 5.3C33.44 4.64 32.66 4.31 31.73 4.31ZM31.73 6.53C31.88 6.53 32 6.57 32.08 6.65L17.5 19.36L2.91 6.65C2.99 6.57 3.11 6.53 3.26 6.53L31.73 6.53ZM31.73 28.46L3.26 28.46C2.95 28.46 2.7 28.35 2.5 28.11C2.31 27.88 2.21 27.61 2.21 27.3L2.21 8.98L16.79 21.58C17.03 21.73 17.26 21.81 17.5 21.81C17.73 21.81 17.96 21.73 18.2 21.58L32.78 8.98L32.78 27.3C32.78 27.61 32.68 27.88 32.49 28.11C32.29 28.35 32.04 28.46 31.73 28.46Z" fill="#0082FB" fill-opacity="1.000000" fill-rule="nonzero"/>
	</g>
</svg>
