<svg width="18.000000" height="18.007080" viewBox="0 0 18 18.0071" fill="none" xmlns="http://www.w3.org/2000/svg" xmlns:xlink="http://www.w3.org/1999/xlink">
	<desc>
			Created with Pixso.
	</desc>
	<defs/>
	<path id="Vector" d="M9.12 4.5C6.57 4.5 4.5 6.57 4.5 9.12C4.5 11.68 6.57 13.75 9.12 13.75C11.68 13.75 13.75 11.68 13.75 9.12C13.75 6.57 11.68 4.5 9.12 4.5ZM9.12 12.12C7.47 12.12 6.12 10.78 6.12 9.12C6.12 7.47 7.47 6.12 9.12 6.12C10.78 6.12 12.12 7.47 12.12 9.12C12.12 10.78 10.78 12.12 9.12 12.12Z" fill="#0082FB" fill-opacity="1.000000" fill-rule="nonzero"/>
	<path id="Vector" d="M9 1.62C11.41 1.62 11.69 1.63 12.64 1.67C13.52 1.71 13.99 1.86 14.31 1.98C14.73 2.14 15.03 2.34 15.34 2.65C15.66 2.97 15.85 3.27 16.01 3.68C16.14 4 16.29 4.48 16.32 5.36C16.37 6.31 16.38 6.59 16.38 8.99C16.38 11.4 16.37 11.68 16.32 12.63C16.29 13.51 16.14 13.98 16.01 14.3C15.85 14.72 15.66 15.02 15.34 15.34C15.03 15.65 14.73 15.85 14.31 16.01C13.99 16.13 13.51 16.28 12.64 16.32C11.69 16.36 11.4 16.37 9 16.37C6.59 16.37 6.31 16.36 5.36 16.32C4.48 16.28 4.01 16.13 3.69 16.01C3.27 15.85 2.97 15.65 2.66 15.34C2.34 15.02 2.15 14.72 1.99 14.3C1.86 13.98 1.71 13.51 1.68 12.63C1.63 11.68 1.62 11.4 1.62 8.99C1.62 6.59 1.63 6.3 1.68 5.36C1.71 4.48 1.86 4 1.99 3.68C2.15 3.27 2.34 2.96 2.66 2.65C2.97 2.33 3.27 2.14 3.69 1.98C4.01 1.86 4.49 1.71 5.36 1.67C6.31 1.63 6.59 1.62 9 1.62ZM9 0C6.56 0 6.25 0.01 5.29 0.05C4.33 0.09 3.67 0.24 3.1 0.47C2.51 0.7 2.01 1 1.51 1.51C1 2.01 0.7 2.51 0.47 3.1C0.25 3.67 0.09 4.33 0.05 5.29C0.01 6.25 0 6.56 0 9C0 11.45 0.01 11.75 0.05 12.71C0.09 13.67 0.25 14.33 0.47 14.9C0.7 15.49 1 15.99 1.51 16.49C2.01 16.99 2.51 17.3 3.1 17.53C3.67 17.75 4.33 17.91 5.29 17.95C6.25 17.99 6.55 18 9 18C11.44 18 11.75 17.99 12.71 17.95C13.66 17.91 14.32 17.75 14.89 17.53C15.48 17.3 15.99 16.99 16.49 16.49C16.99 15.99 17.29 15.49 17.52 14.9C17.75 14.33 17.9 13.67 17.94 12.72C17.98 11.75 18 11.45 18 9C18 6.56 17.98 6.25 17.94 5.29C17.9 4.34 17.75 3.68 17.52 3.11C17.3 2.51 17 2.01 16.49 1.51C15.99 1.01 15.49 0.7 14.9 0.47C14.33 0.25 13.67 0.09 12.71 0.05C11.75 0.01 11.45 0 9 0Z" fill="#0082FB" fill-opacity="1.000000" fill-rule="nonzero"/>
	<path id="Vector" d="M14.91 4.83C14.91 5.42 14.43 5.91 13.83 5.91C13.23 5.91 12.75 5.42 12.75 4.83C12.75 4.23 13.24 3.75 13.83 3.75C14.43 3.75 14.91 4.23 14.91 4.83Z" fill="#0082FB" fill-opacity="1.000000" fill-rule="nonzero"/>
</svg>
