<svg width="30.000000" height="30.000000" viewBox="0 0 30 30" fill="none" xmlns="http://www.w3.org/2000/svg" xmlns:xlink="http://www.w3.org/1999/xlink">
	<desc>
			Created with Pixso.
	</desc>
	<defs>
		<clipPath id="clip105_422">
			<rect id="Icon" rx="-0.500000" width="29.000000" height="29.000000" transform="matrix(1 0 0 -1 0.5 30.5)" fill="white" fill-opacity="0"/>
		</clipPath>
	</defs>
	<g clip-path="url(#clip105_422)">
		<path id="Vector" d="M29.09 22.5L24.79 18.2C24.2 17.6 23.46 17.3 22.59 17.3C21.73 17.3 20.96 17.6 20.29 18.2L18.59 19.9C17.73 19.36 17 18.9 16.4 18.5C15.4 17.9 14.5 17.2 13.7 16.4C12.9 15.6 12.2 14.7 11.59 13.7C11.2 13.1 10.73 12.36 10.2 11.5L11.9 9.8C12.5 9.2 12.81 8.45 12.84 7.55C12.88 6.65 12.59 5.9 12 5.3L7.59 1C7 0.4 6.26 0.1 5.4 0.1C4.53 0.1 3.79 0.4 3.2 1C2.73 1.33 2.26 1.83 1.79 2.5C1.06 3.63 0.53 4.9 0.2 6.3C-0.27 8.7 0.09 11.13 1.29 13.6C2.5 16.06 4.73 18.9 8 22.1C11.06 25.23 14.26 27.43 17.59 28.7C19.59 29.5 21.43 29.9 23.09 29.9L23.7 29.9C25.16 29.7 26.4 29.3 27.4 28.7C27.93 28.3 28.5 27.73 29.09 27C29.7 26.26 30 25.48 30 24.65C30 23.81 29.7 23.1 29.09 22.5ZM27.7 25.8C27.16 26.46 26.7 26.93 26.29 27.2C25.56 27.66 24.63 27.96 23.5 28.1L23.09 28.1C21.56 28.1 19.9 27.73 18.09 27C15.09 25.8 12.13 23.73 9.2 20.8C6.26 17.86 4.23 15.3 3.09 13.1C1.96 10.9 1.59 8.76 2 6.7C2.26 5.5 2.73 4.43 3.4 3.5C3.73 3.03 4.03 2.66 4.29 2.4L4.4 2.3C4.66 2.03 4.98 1.9 5.34 1.9C5.71 1.9 6.03 2.03 6.29 2.3L10.59 6.6C10.86 6.86 11 7.18 11 7.55C11 7.91 10.86 8.23 10.59 8.5L8.59 10.4C8.4 10.66 8.28 10.96 8.25 11.3C8.21 11.63 8.29 11.93 8.5 12.2C9.03 13.26 9.53 14.1 10 14.7C10.73 15.76 11.54 16.75 12.45 17.65C13.34 18.55 14.33 19.36 15.4 20.1C16 20.56 16.83 21.06 17.9 21.6C18.16 21.73 18.43 21.8 18.7 21.8C19.16 21.8 19.53 21.63 19.79 21.3L21.59 19.5C21.86 19.23 22.18 19.1 22.54 19.1C22.91 19.1 23.23 19.23 23.5 19.5L27.79 23.8C28.06 24.06 28.18 24.38 28.15 24.75C28.11 25.11 27.96 25.46 27.7 25.8ZM18.2 4.6C19 4.73 19.83 5.01 20.7 5.45C21.56 5.88 22.33 6.43 23 7.1C23.66 7.76 24.21 8.53 24.65 9.4C25.08 10.26 25.33 11.1 25.4 11.9C25.46 12.16 25.58 12.38 25.75 12.55C25.91 12.71 26.13 12.8 26.4 12.8L26.5 12.8C26.76 12.73 26.96 12.6 27.09 12.4C27.23 12.2 27.29 11.96 27.29 11.7C27.16 10.7 26.83 9.66 26.29 8.6C25.76 7.53 25.09 6.6 24.29 5.8C23.5 5 22.56 4.33 21.5 3.8C20.43 3.26 19.4 2.93 18.4 2.8C18.13 2.73 17.9 2.78 17.7 2.95C17.5 3.11 17.38 3.33 17.34 3.6C17.31 3.86 17.38 4.1 17.54 4.3C17.71 4.5 17.93 4.6 18.2 4.6ZM17.29 8.5C17.76 8.56 18.26 8.75 18.79 9.05C19.33 9.35 19.78 9.68 20.15 10.05C20.51 10.41 20.84 10.88 21.15 11.45C21.45 12.01 21.63 12.5 21.7 12.9C21.7 13.16 21.79 13.38 22 13.55C22.2 13.71 22.4 13.8 22.59 13.8L22.7 13.8C22.96 13.73 23.18 13.6 23.34 13.4C23.51 13.2 23.56 12.96 23.5 12.7C23.43 12.03 23.2 11.33 22.79 10.6C22.4 9.86 21.95 9.25 21.45 8.75C20.95 8.25 20.34 7.8 19.65 7.4C18.95 7 18.23 6.76 17.5 6.7C17.23 6.63 17 6.68 16.79 6.85C16.59 7.01 16.48 7.23 16.45 7.5C16.41 7.76 16.48 8 16.65 8.2C16.81 8.4 17.03 8.5 17.29 8.5Z" fill="#0082FB" fill-opacity="1.000000" fill-rule="nonzero"/>
	</g>
</svg>
