<svg width="36.000000" height="36.000000" viewBox="0 0 36 36" fill="none" xmlns="http://www.w3.org/2000/svg" xmlns:xlink="http://www.w3.org/1999/xlink">
	<desc>
			Created with Pixso.
	</desc>
	<defs/>
	<rect id="Rectangle 44" rx="18.000000" width="36.000000" height="36.000000" fill="#DEDEDE" fill-opacity="1.000000"/>
	<path id="Vector" d="M27 18C27 22.97 22.97 27 18 27C13.02 27 9 22.97 9 18C9 13.02 13.02 9 18 9C22.97 9 27 13.02 27 18ZM18.32 15.64C17.44 16 15.69 16.76 13.07 17.9C12.64 18.07 12.42 18.24 12.4 18.4C12.37 18.67 12.71 18.78 13.17 18.93C13.24 18.95 13.3 18.97 13.37 18.99C13.83 19.14 14.45 19.31 14.77 19.32C15.06 19.33 15.39 19.21 15.75 18.96C18.2 17.3 19.46 16.47 19.54 16.45C19.6 16.44 19.68 16.42 19.73 16.47C19.78 16.51 19.78 16.6 19.77 16.63C19.74 16.77 18.39 18.02 17.69 18.67C17.48 18.87 17.32 19.02 17.29 19.05C17.22 19.12 17.15 19.19 17.08 19.26C16.65 19.67 16.33 19.98 17.1 20.48C17.47 20.72 17.76 20.93 18.05 21.12C18.37 21.34 18.69 21.56 19.11 21.83C19.21 21.9 19.31 21.97 19.41 22.04C19.78 22.31 20.12 22.55 20.53 22.51C20.77 22.49 21.02 22.26 21.15 21.59C21.45 19.99 22.03 16.54 22.17 15.12C22.18 14.99 22.16 14.83 22.15 14.76C22.14 14.69 22.11 14.59 22.02 14.52C21.92 14.43 21.75 14.41 21.67 14.41C21.34 14.42 20.82 14.6 18.32 15.64Z" fill="#0082FB" fill-opacity="1.000000" fill-rule="evenodd"/>
</svg>
