<svg width="36.000000" height="36.000000" viewBox="0 0 36 36" fill="none" xmlns="http://www.w3.org/2000/svg" xmlns:xlink="http://www.w3.org/1999/xlink">
	<desc>
			Created with Pixso.
	</desc>
	<defs/>
	<rect id="Rectangle 50" rx="18.000000" width="36.000000" height="36.000000" fill="#DEDEDE" fill-opacity="1.000000"/>
	<path id="Vector" d="M26.82 14.71C26.82 14.71 26.64 13.48 26.1 12.94C25.41 12.22 24.65 12.22 24.29 12.18C21.78 12 18 12 18 12L17.99 12C17.99 12 14.21 12 11.7 12.18C11.34 12.22 10.58 12.22 9.89 12.94C9.35 13.48 9.18 14.71 9.18 14.71C9.18 14.71 9 16.17 9 17.61L9 18.97C9 20.42 9.17 21.87 9.17 21.87C9.17 21.87 9.35 23.11 9.89 23.65C10.57 24.36 11.47 24.34 11.87 24.42C13.32 24.55 18 24.6 18 24.6C18 24.6 21.78 24.59 24.29 24.41C24.65 24.37 25.41 24.36 26.1 23.65C26.64 23.11 26.82 21.87 26.82 21.87C26.82 21.87 27 20.42 27 18.97L27 17.61C27 16.17 26.82 14.71 26.82 14.71ZM16.14 20.62L16.14 15.59L21 18.11L16.14 20.62Z" fill="#0082FB" fill-opacity="1.000000" fill-rule="nonzero"/>
</svg>
