<svg xmlns="http://www.w3.org/2000/svg" width="23" height="23" viewBox="0 0 23 23" fill="none">
  <g clip-path="url(#clip0_1_944)">
    <path d="M6.78576 4.40482C6.78892 4.40482 6.79205 4.40524 6.79521 4.40524H12.5907C12.8056 4.40524 12.9797 4.23114 12.9797 4.01633C12.9797 3.80147 12.8056 3.62744 12.5907 3.62744H8.15476H6.79521C6.5804 3.62744 6.40625 3.80147 6.40625 4.01633C6.40625 4.22795 6.5754 4.39976 6.78576 4.40482Z" fill="white"/>
    <path d="M6.79521 6.35552H16.3712C16.586 6.35552 16.7601 6.18137 16.7601 5.96658C16.7601 5.75173 16.586 5.57764 16.3712 5.57764H6.79521C6.5804 5.57764 6.40625 5.75173 6.40625 5.96658C6.40625 6.18137 6.58041 6.35552 6.79521 6.35552Z" fill="white"/>
    <path d="M6.79521 8.30573H16.3712C16.586 8.30573 16.7601 8.13153 16.7601 7.91672C16.7601 7.80336 16.7113 7.70171 16.6339 7.63064C16.5646 7.56698 16.4726 7.52783 16.3712 7.52783H6.79521C6.69378 7.52783 6.60171 7.56698 6.53241 7.63064C6.45505 7.70171 6.40625 7.80336 6.40625 7.91672C6.40625 8.13153 6.58041 8.30573 6.79521 8.30573Z" fill="white"/>
    <path d="M16.7601 9.86693C16.7601 9.65219 16.586 9.47803 16.3712 9.47803H6.79521C6.5804 9.47803 6.40625 9.65218 6.40625 9.86693C6.40625 10.0818 6.5804 10.2559 6.79521 10.2559H16.3712C16.586 10.2559 16.7601 10.0818 16.7601 9.86693Z" fill="white"/>
    <path d="M22.6432 6.81704C22.6115 6.77332 22.5705 6.73527 22.5205 6.70687L19.3714 4.91848V3.86574V3.73984C19.3552 3.64096 19.3019 3.55455 19.2256 3.49622L18.5936 2.94888L16.9187 1.4985L16.1279 0.813661C16.0604 0.755114 15.9763 0.723949 15.8904 0.720703H15.8623H11.9797H11.1248H4.90327C4.29237 0.720703 3.79537 1.21769 3.79537 1.82849V4.88299L0.786369 6.59193C0.381594 6.7397 0.0913086 7.12748 0.0913086 7.58271V21.2235C0.0913086 21.8056 0.564904 22.2792 1.14703 22.2792H21.9186C22.5007 22.2792 22.9743 21.8056 22.9743 21.2235V7.58271C22.9743 7.28124 22.8465 7.00963 22.6432 6.81704ZM20.6286 6.52703L21.8116 7.19892L21.6626 7.30499L19.3714 8.93625V7.30499V6.52704V5.81311L20.6286 6.52703ZM17.959 3.41743H16.2609V1.94679L17.959 3.41743ZM4.57329 7.30499V6.52704V5.33582V4.44125V1.82849C4.57329 1.64654 4.72132 1.4985 4.90327 1.4985H9.75498H11.3303H11.7741H13.3494H15.4912V3.80228C15.4912 4.01479 15.6635 4.18702 15.876 4.18702H18.5935V4.47667V5.3713V6.52703V7.30498V9.49002L13.517 13.1045L12.8681 13.5664L12.6305 13.7355L11.5944 14.4732L10.5582 13.7355L10.3204 13.5662L9.67154 13.1043L4.57329 9.47446V7.30499ZM2.47567 6.52703L3.79537 5.77762V6.52703V7.30498V8.92064L1.52613 7.30499L1.33961 7.17216L2.47567 6.52703ZM0.869194 21.0703V7.79213L3.79537 9.87551L4.57328 10.4293L9.08101 13.6387L8.97404 13.7356L8.11451 14.5134L0.869194 21.0703ZM1.55228 21.5014L9.27382 14.5134L9.72989 14.1006L10.3096 14.5134L11.3689 15.2676C11.4364 15.3156 11.5153 15.3396 11.5944 15.3396C11.6735 15.3396 11.7525 15.3156 11.82 15.2676L12.8791 14.5134L13.4586 14.1008L13.9146 14.5134L21.6364 21.5014H1.55228ZM22.1964 20.959L15.0739 14.5134L14.2144 13.7356L14.1076 13.6389L18.5936 10.445L19.3714 9.89108L22.1964 7.87977V20.959Z" fill="white"/>
  </g>
  <defs>
    <clipPath id="clip0_1_944">
      <rect width="23" height="23" fill="white"/>
    </clipPath>
  </defs>
</svg>