<svg width="87.000000" height="87.000000" viewBox="0 0 87 87" fill="none" xmlns="http://www.w3.org/2000/svg" xmlns:xlink="http://www.w3.org/1999/xlink">
	<desc>
			Created with Pixso.
	</desc>
	<defs/>
	<path id="Path" d="M60.98 50.95L55.18 50.29C53.79 50.13 52.42 50.61 51.44 51.59L47.24 55.79C40.78 52.51 35.48 47.23 32.2 40.75L36.42 36.53C37.4 35.55 37.88 34.18 37.72 32.79L37.06 27.03C36.78 24.73 34.84 23 32.52 23L28.57 23C25.99 23 23.84 25.14 24 27.72C25.21 47.21 40.8 62.78 60.27 63.99C62.85 64.15 64.99 62 64.99 59.42L64.99 55.47C65.02 53.17 63.28 51.23 60.98 50.95Z" fill="#FFFFFF" fill-opacity="1.000000" fill-rule="evenodd"/>
	<circle id="Ellipse 436" cx="43.500000" cy="43.500000" r="42.000000" stroke="#7CF9F9" stroke-opacity="1.000000" stroke-width="3.000000"/>
</svg>
