<svg width="23.000000" height="23.000000" viewBox="0 0 23 23" fill="none" xmlns="http://www.w3.org/2000/svg" xmlns:xlink="http://www.w3.org/1999/xlink">
	<desc>
			Created with Pixso.
	</desc>
	<defs/>
	<path id="Vector" d="M22.34 16.25L17.31 14.09C17.09 14 16.85 13.98 16.63 14.04C16.4 14.09 16.2 14.22 16.05 14.4L13.82 17.12C10.33 15.47 7.51 12.66 5.86 9.16L8.58 6.94C8.77 6.79 8.89 6.59 8.95 6.36C9.01 6.13 8.99 5.89 8.89 5.68L6.74 0.65C6.64 0.41 6.46 0.23 6.23 0.11C6.01 0 5.75 -0.03 5.5 0.02L0.83 1.1C0.59 1.15 0.38 1.29 0.23 1.48C0.08 1.67 0 1.91 0 2.15C0 13.67 9.33 23 20.84 23C21.08 23 21.32 22.91 21.51 22.76C21.7 22.61 21.84 22.4 21.89 22.16L22.97 17.49C23.02 17.24 22.99 16.98 22.88 16.75C22.76 16.53 22.57 16.35 22.34 16.25Z" fill="#FFFFFF" fill-opacity="1.000000" fill-rule="nonzero"/>
</svg>

