<svg width="23.000000" height="19.166260" viewBox="0 0 23 19.1663" fill="none" xmlns="http://www.w3.org/2000/svg" xmlns:xlink="http://www.w3.org/1999/xlink">
	<desc>
			Created with Pixso.
	</desc>
	<defs/>
	<path id="Vector" d="M3.83 0C2.81 0 1.84 0.4 1.12 1.12C0.4 1.84 0 2.81 0 3.83L0 4.21L11.5 10.41L23 4.22L23 3.83C23 2.81 22.59 1.84 21.87 1.12C21.15 0.4 20.18 0 19.16 0L3.83 0Z" fill="#FFFFFF" fill-opacity="1.000000" fill-rule="nonzero"/>
	<path id="Vector" d="M23 6.39L11.95 12.34C11.81 12.41 11.65 12.45 11.5 12.45C11.34 12.45 11.18 12.41 11.04 12.34L0 6.39L0 15.33C0 16.34 0.4 17.32 1.12 18.04C1.84 18.76 2.81 19.16 3.83 19.16L19.16 19.16C20.18 19.16 21.15 18.76 21.87 18.04C22.59 17.32 23 16.34 23 15.33L23 6.39Z" fill="#FFFFFF" fill-opacity="1.000000" fill-rule="nonzero"/>
</svg>
