<svg xmlns="http://www.w3.org/2000/svg" width="36" height="36" viewBox="0 0 36 36" fill="none">
  <path fill-rule="evenodd" clip-rule="evenodd" d="M22.3199 7.91992H13.6799C10.4988 7.91992 7.91992 10.4988 7.91992 13.6799V22.3199C7.91992 25.501 10.4988 28.0799 13.6799 28.0799H22.3199C25.501 28.0799 28.0799 25.501 28.0799 22.3199V13.6799C28.0799 10.4988 25.501 7.91992 22.3199 7.91992Z" stroke="white" stroke-width="1.38462" stroke-linecap="round" stroke-linejoin="round"/>
  <path fill-rule="evenodd" clip-rule="evenodd" d="M17.9987 22.3192C15.6128 22.3192 13.6787 20.3851 13.6787 17.9992C13.6787 15.6133 15.6128 13.6792 17.9987 13.6792C20.3846 13.6792 22.3187 15.6133 22.3187 17.9992C22.3187 19.1449 21.8635 20.2437 21.0534 21.0539C20.2432 21.864 19.1444 22.3192 17.9987 22.3192Z" stroke="white" stroke-width="1.38462" stroke-linecap="round" stroke-linejoin="round"/>
  <path d="M23.7613 10.7992C22.966 10.7992 22.3213 11.4439 22.3213 12.2392C22.3213 13.0345 22.966 13.6792 23.7613 13.6792C24.5566 13.6792 25.2013 13.0345 25.2013 12.2392C25.2013 11.4439 24.5566 10.7992 23.7613 10.7992Z" fill="white"/>
  <path d="M23.761 11.5195C23.3634 11.5195 23.041 11.8418 23.041 12.2395C23.041 12.6371 23.3634 12.9595 23.761 12.9595C24.1587 12.9595 24.481 12.6371 24.481 12.2395C24.481 11.8418 24.1587 11.5195 23.761 11.5195Z" stroke="white" stroke-width="1.10769" stroke-linecap="round"/>
</svg>