<svg xmlns="http://www.w3.org/2000/svg" width="53" height="52" viewBox="0 0 53 52" fill="none">
  <g clip-path="url(#clip0_1_71)">
    <path d="M26.4999 33.653C29.5547 33.653 32.0311 31.2233 32.0311 28.2262C32.0311 25.229 29.5547 22.7993 26.4999 22.7993C23.4452 22.7993 20.9688 25.229 20.9688 28.2262C20.9688 31.2233 23.4452 33.653 26.4999 33.653Z" fill="#0082FB"/>
    <path d="M28.846 34.0229H24.1527C20.2481 34.0229 17.0713 37.1409 17.0713 40.9713V46.6042L17.0858 46.6917L17.4806 46.8124C21.2069 47.955 24.445 48.3366 27.1104 48.3366C32.3144 48.3366 35.3306 46.8799 35.517 46.7882L35.8866 46.6032L35.9247 46.6042V40.9708C35.9274 37.1409 32.7517 34.0229 28.846 34.0229Z" fill="#0082FB"/>
    <path d="M15.208 21.1728C20.136 21.1728 24.1309 17.2533 24.1309 12.4183C24.1309 7.58334 20.136 3.66382 15.208 3.66382C10.2801 3.66382 6.28516 7.58334 6.28516 12.4183C6.28516 17.2533 10.2801 21.1728 15.208 21.1728Z" fill="#0082FB"/>
    <path d="M37.7895 21.1728C42.7175 21.1728 46.7113 17.2517 46.7113 12.4173C46.7113 7.5844 42.7159 3.66382 37.7895 3.66382C32.8605 3.66382 28.8672 7.58335 28.8672 12.4173C28.8672 17.2512 32.8605 21.1728 37.7895 21.1728Z" fill="#0082FB"/>
    <path d="M22.1624 33.169C20.7459 31.9706 19.8451 30.2008 19.8451 28.2265C19.8451 25.8054 21.1982 23.692 23.1986 22.5647C21.896 22.0561 20.48 21.7683 18.9947 21.7683H11.4234C5.12456 21.7678 0 26.7978 0 32.9767V42.0632L0.0230981 42.205L0.660714 42.3994C6.55987 44.2082 11.6952 44.8306 15.9474 44.8533V40.9707C15.9474 37.2056 18.5983 34.0455 22.1624 33.169Z" fill="#0082FB"/>
    <path d="M41.5758 21.7678H34.0055C32.5203 21.7678 31.1059 22.0556 29.8027 22.5642C31.8048 23.6915 33.1579 25.8038 33.1579 28.2261C33.1579 30.1993 32.2565 31.969 30.8411 33.1675C32.2678 33.5159 33.5812 34.2321 34.6485 35.2798C36.1998 36.803 37.0545 38.8246 37.0539 40.9718V44.8533C41.3061 44.8307 46.442 44.2077 52.3401 42.3995L52.9777 42.205L53.0013 42.0632V32.9767C52.9992 26.7978 47.8746 21.7678 41.5758 21.7678Z" fill="#0082FB"/>
  </g>
  <defs>
    <clipPath id="clip0_1_71">
      <rect width="53" height="52" fill="white"/>
    </clipPath>
  </defs>
</svg>