<svg width="120.000000" height="120.000000" viewBox="0 0 120 120" fill="none" xmlns="http://www.w3.org/2000/svg" xmlns:xlink="http://www.w3.org/1999/xlink">
	<desc>
			Created with Pixso.
	</desc>
	<defs>
		<clipPath id="clip126_229">
			<rect id="hospital_svgrepo.com" rx="-0.500000" width="119.000000" height="119.000000" transform="translate(0.500000 0.500000)" fill="white" fill-opacity="0"/>
		</clipPath>
		<linearGradient x1="59.999989" y1="10.000000" x2="59.999989" y2="113.750000" id="paint_linear_126_230_0" gradientUnits="userSpaceOnUse">
			<stop stop-color="#0082FB"/>
			<stop offset="1.000000" stop-color="#004D95"/>
		</linearGradient>
	</defs>
	<rect id="hospital_svgrepo.com" rx="-0.500000" width="119.000000" height="119.000000" transform="translate(0.500000 0.500000)" fill="#FFFFFF" fill-opacity="0"/>
	<g clip-path="url(#clip126_229)">
		<path id="Vector" d="M107.5 42.5C107.5 35.47 107.5 31.96 105.81 29.44C105.08 28.35 104.14 27.41 103.05 26.68C100.85 25.21 97.88 25.02 92.48 25C92.5 26.46 92.5 27.98 92.5 29.55L92.5 30L92.5 36.25L97.5 36.25C99.57 36.25 101.25 37.92 101.25 40C101.25 42.07 99.57 43.75 97.5 43.75L92.5 43.75L92.5 51.25L97.5 51.25C99.57 51.25 101.25 52.92 101.25 55C101.25 57.07 99.57 58.75 97.5 58.75L92.5 58.75L92.5 66.25L97.5 66.25C99.57 66.25 101.25 67.92 101.25 70C101.25 72.07 99.57 73.75 97.5 73.75L92.5 73.75L92.5 106.25L85 106.25L85 30C85 20.57 85 15.85 82.07 12.92C79.14 10 74.42 10 65 10L55 10C45.57 10 40.85 10 37.92 12.92C35 15.85 35 20.57 35 30L35 106.25L27.5 106.25L27.5 73.75L22.5 73.75C20.42 73.75 18.75 72.07 18.75 70C18.75 67.92 20.42 66.25 22.5 66.25L27.5 66.25L27.5 58.75L22.5 58.75C20.42 58.75 18.75 57.07 18.75 55C18.75 52.92 20.42 51.25 22.5 51.25L27.5 51.25L27.5 43.75L22.5 43.75C20.42 43.75 18.75 42.07 18.75 40C18.75 37.92 20.42 36.25 22.5 36.25L27.5 36.25L27.5 30L27.5 29.55C27.5 27.98 27.5 26.46 27.51 25C22.11 25.02 19.15 25.21 16.94 26.68C15.85 27.41 14.91 28.35 14.18 29.44C12.5 31.96 12.5 35.47 12.5 42.5L12.5 106.25L10 106.25C7.92 106.25 6.25 107.92 6.25 110C6.25 112.07 7.92 113.75 10 113.75L110 113.75C112.07 113.75 113.75 112.07 113.75 110C113.75 107.92 112.07 106.25 110 106.25L107.5 106.25L107.5 42.5ZM60 21.25C62.07 21.25 63.75 22.92 63.75 25L63.75 31.25L70 31.25C72.07 31.25 73.75 32.92 73.75 35C73.75 37.07 72.07 38.75 70 38.75L63.75 38.75L63.75 45C63.75 47.07 62.07 48.75 60 48.75C57.92 48.75 56.25 47.07 56.25 45L56.25 38.75L50 38.75C47.92 38.75 46.25 37.07 46.25 35C46.25 32.92 47.92 31.25 50 31.25L56.25 31.25L56.25 25C56.25 22.92 57.92 21.25 60 21.25ZM46.25 60C46.25 57.92 47.92 56.25 50 56.25L70 56.25C72.07 56.25 73.75 57.92 73.75 60C73.75 62.07 72.07 63.75 70 63.75L50 63.75C47.92 63.75 46.25 62.07 46.25 60ZM46.25 75C46.25 72.92 47.92 71.25 50 71.25L70 71.25C72.07 71.25 73.75 72.92 73.75 75C73.75 77.07 72.07 78.75 70 78.75L50 78.75C47.92 78.75 46.25 77.07 46.25 75ZM60 91.25C62.07 91.25 63.75 92.92 63.75 95L63.75 106.25L56.25 106.25L56.25 95C56.25 92.92 57.92 91.25 60 91.25Z" fill="url(#paint_linear_126_230_0)" fill-opacity="1.000000" fill-rule="evenodd"/>
	</g>
</svg>
