<svg xmlns="http://www.w3.org/2000/svg" width="18" height="18" viewBox="0 0 18 18" fill="none">
  <g clip-path="url(#clip0_1_1792)">
    <path d="M3.25455 10.3443V4.37109H1.52146C0.683754 4.37109 0 5.06989 0 5.92257V13.1802C0 14.0329 0.683754 14.7318 1.52146 14.7318H3.70114V16.3303C3.70114 16.4372 3.76527 16.5334 3.86142 16.574C3.95761 16.6146 4.07085 16.5911 4.14348 16.5163L5.89581 14.7318H9.63974C10.4774 14.7318 11.1613 14.0329 11.1613 13.1802V13.1781H6.05609C4.51104 13.1781 3.25455 11.9065 3.25455 10.3443Z" fill="#0082FB"/>
    <path d="M16.2674 1.40625H6.05603C5.10312 1.40625 4.32343 2.20043 4.32343 3.17099V10.3442C4.32343 11.3148 5.10312 12.109 6.05603 12.109H11.8451L14.4941 14.782C14.5784 14.8679 14.7052 14.8935 14.8152 14.8471C14.9254 14.8006 14.9972 14.6912 14.9972 14.5698V12.109H16.2674C17.2204 12.109 18 11.3148 18 10.3442V3.17099C18 2.20043 17.2203 1.40625 16.2674 1.40625ZM12.9782 9.84779H6.88783V8.99293H12.9782V9.84779ZM15.4356 7.17641H6.88783V6.32162H15.4356V7.17641ZM15.4356 4.50503H6.88783V3.6502H15.4356V4.50503Z" fill="#0082FB"/>
  </g>
  <defs>
    <clipPath id="clip0_1_1792">
      <rect width="18" height="18" fill="white"/>
    </clipPath>
  </defs>
</svg>