<svg xmlns="http://www.w3.org/2000/svg" width="23" height="23" viewBox="0 0 23 23" fill="none">
  <g clip-path="url(#clip0_1_931)">
    <path d="M22.5879 18.3468C22.4815 18.2363 22.3715 18.1221 22.2374 18.0189C20.9149 17.0004 19.468 16.0662 17.8141 15.163C17.5477 15.0175 17.3373 14.9027 17.1006 14.9027C16.7846 14.9027 16.567 15.1004 16.2915 15.3507C15.9856 15.6289 15.6896 15.9086 15.4066 16.1869C15.2511 16.3398 15.0994 16.4922 14.9524 16.6436C14.9143 16.6828 14.8749 16.7154 14.8338 16.7433C14.6901 16.841 14.522 16.8724 14.2846 16.8516C13.6643 16.7968 13.037 16.6128 12.367 16.2892C11.212 15.731 10.1508 14.8871 9.12274 13.7092C7.84895 12.2496 6.97133 10.7433 6.4397 9.1042L6.39103 8.95522C6.32296 8.74799 6.24588 8.51307 6.26092 8.46296C6.27028 8.4315 6.31951 8.37335 6.39069 8.30023C6.47117 8.21742 6.57982 8.11532 6.69199 8.01002L6.73287 7.9717C6.81107 7.89819 6.89153 7.8254 6.97268 7.75305C7.15814 7.58769 7.34872 7.42518 7.53517 7.26664C7.72937 7.10157 7.93015 6.93086 8.12519 6.7566C8.58933 6.34174 8.68762 6.10271 8.35514 5.50525C7.71328 4.3519 6.98572 3.04468 6.21805 1.77344C5.99283 1.40064 5.71782 1.06688 5.45194 0.744079C5.33699 0.604507 5.21808 0.460208 5.1077 0.317748C5.03214 0.220177 4.91562 0.163086 4.79216 0.163086H4.66394C4.56944 0.163086 4.47805 0.196615 4.40592 0.257654C3.15351 1.31838 2.14029 2.60326 1.16038 3.84582L0.974692 4.08114C0.789798 4.3152 0.621438 4.56014 0.458649 4.79695C0.385074 4.90394 0.311513 5.01097 0.236545 5.11685C0.188757 5.18429 0.163086 5.26493 0.163086 5.34759V5.68937C0.163086 5.71695 0.165935 5.74441 0.171609 5.77137C0.200512 5.90909 0.227524 6.04732 0.2546 6.18555C0.31463 6.49275 0.376794 6.81042 0.459875 7.12396C0.903801 8.79864 1.63939 10.4103 2.70862 12.0511C4.98611 15.5457 7.85077 18.4478 11.2231 20.6769C12.7766 21.7036 14.2863 22.3568 15.8385 22.6738C16.0565 22.7183 16.2756 22.7526 16.4875 22.7857C16.5834 22.8006 16.6794 22.8157 16.7752 22.8316C16.7968 22.8352 16.8188 22.837 16.8407 22.837H17.6525C17.7201 22.837 17.7866 22.8199 17.8457 22.7872C19.4714 21.8882 20.8886 20.7616 22.0606 19.7782C22.2316 19.6347 22.3824 19.4783 22.5283 19.3271C22.5914 19.2617 22.6545 19.1963 22.7189 19.1324C22.7944 19.0574 22.837 18.9554 22.837 18.8489V18.7635C22.837 18.6559 22.7936 18.5528 22.7165 18.4776C22.6728 18.435 22.6303 18.3909 22.5879 18.3468ZM4.68733 1.07099C4.73706 1.13196 4.78674 1.19228 4.83569 1.25177C5.09482 1.56625 5.33953 1.86339 5.53463 2.18623C6.29495 3.44528 7.01884 4.74598 7.65747 5.89346C7.69004 5.95205 7.71489 5.99877 7.73181 6.03352C7.68993 6.07474 7.63073 6.12757 7.59308 6.16122C7.40546 6.32896 7.20847 6.49638 7.01801 6.65832C6.8164 6.82975 6.60983 7.00557 6.4071 7.18741L2.5734 3.3537C3.2269 2.5493 3.91482 1.76064 4.68733 1.07099ZM17.5488 22.0386H16.8735C16.786 22.0242 16.6984 22.0105 16.6107 21.9968C16.3986 21.9637 16.1981 21.9323 15.9983 21.8915C14.548 21.5954 13.13 20.9802 11.6634 20.0108C8.38275 17.8423 5.59495 15.0176 3.37749 11.6152C2.35542 10.0466 1.65347 8.51063 1.2316 6.91944C1.15531 6.63134 1.09838 6.34035 1.03813 6.03225C1.01308 5.90412 0.987956 5.77595 0.961493 5.64815V5.47377C1.01351 5.39915 1.06503 5.32418 1.11659 5.24922C1.27911 5.01275 1.43271 4.78937 1.60122 4.57606L1.78731 4.34024C1.88154 4.22073 1.97621 4.10078 2.07128 3.98075L5.82625 7.73571C5.65588 7.91074 5.54974 8.05437 5.49599 8.23409C5.40922 8.52415 5.49326 8.7801 5.63238 9.20414L5.68028 9.3505C6.24578 11.0942 7.17507 12.6917 8.52121 14.2342C9.62143 15.4948 10.7658 16.4022 12.0197 17.008C12.7782 17.3745 13.4962 17.5835 14.2146 17.6469C14.2838 17.653 14.3515 17.6561 14.4155 17.6561C14.4156 17.6561 14.4156 17.6561 14.4156 17.6561C14.805 17.6561 15.1297 17.5434 15.4035 17.313L19.1318 21.0413C18.629 21.3908 18.1009 21.7288 17.5488 22.0386ZM21.5474 19.1666C21.0115 19.6163 20.4231 20.0962 19.7883 20.5686L15.9712 16.7515C16.2453 16.4821 16.532 16.2112 16.8285 15.9416C16.9129 15.8649 17.0492 15.7411 17.111 15.7048C17.1779 15.7253 17.3345 15.8108 17.4315 15.8637C19.0485 16.7467 20.4611 17.6586 21.7503 18.6515C21.8075 18.6955 21.8638 18.7486 21.9212 18.8064C21.7954 18.9366 21.6751 19.0594 21.5474 19.1666Z" fill="white"/>
    <path d="M21.2005 11.5147C20.3514 11.5147 19.6607 10.8239 19.6607 9.97489C19.6607 6.66791 16.9703 3.97752 13.6633 3.97752C12.8143 3.97752 12.1235 3.28677 12.1235 2.43774C12.1235 1.5887 12.8143 0.897949 13.6633 0.897949C18.6684 0.897949 22.7403 4.96986 22.7403 9.9749C22.7403 10.8239 22.0495 11.5147 21.2005 11.5147ZM13.6633 1.69636C13.2545 1.69636 12.9219 2.02894 12.9219 2.43774C12.9219 2.84652 13.2545 3.17911 13.6633 3.17911C17.4105 3.17911 20.4591 6.22766 20.4591 9.97489C20.4591 10.3837 20.7917 10.7163 21.2005 10.7163C21.6092 10.7163 21.9419 10.3837 21.9419 9.97489C21.9419 5.41009 18.2281 1.69636 13.6633 1.69636Z" fill="white"/>
    <path d="M17.232 12.5541C16.5924 12.5541 16.0721 12.0338 16.0721 11.3941C16.0721 9.26179 14.3372 7.52696 12.2049 7.52696C11.5653 7.52696 11.0449 7.00663 11.0449 6.367C11.0449 5.72737 11.5653 5.20703 12.2049 5.20703C15.6164 5.20703 18.392 7.98258 18.392 11.3941C18.392 12.0338 17.8717 12.5541 17.232 12.5541ZM12.2049 6.00545C12.0055 6.00545 11.8433 6.16763 11.8433 6.36701C11.8433 6.5664 12.0055 6.72856 12.2049 6.72856C14.7775 6.72856 16.8705 8.82155 16.8705 11.3941C16.8705 11.5935 17.0326 11.7557 17.232 11.7557C17.4314 11.7557 17.5936 11.5935 17.5936 11.3941C17.5936 8.42279 15.1762 6.00545 12.2049 6.00545Z" fill="white"/>
  </g>
  <defs>
    <clipPath id="clip0_1_931">
      <rect width="23" height="23" fill="white"/>
    </clipPath>
  </defs>
</svg>