<svg xmlns="http://www.w3.org/2000/svg" width="70" height="70" viewBox="0 0 70 70" fill="none">
  <g clip-path="url(#clip0_1_1065)">
    <path d="M45.6344 48.0457H32.4871C31.8859 48.0457 31.3989 48.5328 31.3989 49.1338C31.3989 49.7348 31.8859 50.2219 32.4871 50.2219H44.5463V56.8546H25.4541V50.2219H28.1348C28.7357 50.2219 29.2229 49.7347 29.2229 49.1338C29.2229 48.5329 28.7358 48.0457 28.1348 48.0457H24.366C23.7651 48.0457 23.2778 48.5328 23.2778 49.1338V57.9427C23.2778 58.5436 23.765 59.0309 24.366 59.0309H45.6347C46.2356 59.0309 46.7228 58.5438 46.7228 57.9427V49.1338C46.7225 48.5329 46.2354 48.0457 45.6344 48.0457Z" fill="#0082FB"/>
    <path d="M39.0639 14.0957H30.9368C30.3359 14.0957 29.8486 14.5828 29.8486 15.1838C29.8486 15.7849 30.3358 16.272 30.9368 16.272H39.0639C39.6648 16.272 40.1521 15.7849 40.1521 15.1838C40.1521 14.5828 39.6649 14.0957 39.0639 14.0957Z" fill="#0082FB"/>
    <path d="M39.0639 17.9429H30.9368C30.3359 17.9429 29.8486 18.43 29.8486 19.031C29.8486 19.632 30.3358 20.1192 30.9368 20.1192H39.0639C39.6648 20.1192 40.1521 19.6319 40.1521 19.031C40.1521 18.4301 39.6649 17.9429 39.0639 17.9429Z" fill="#0082FB"/>
    <path d="M39.0639 21.7896H30.9368C30.3359 21.7896 29.8486 22.2767 29.8486 22.8777C29.8486 23.4787 30.3358 23.9658 30.9368 23.9658H39.0639C39.6648 23.9658 40.1521 23.4787 40.1521 22.8777C40.1521 22.2768 39.6649 21.7896 39.0639 21.7896Z" fill="#0082FB"/>
    <path d="M50.9914 61.3393V44.6835C50.9914 44.0824 50.5044 43.5953 49.9032 43.5953H45.3739C44.9178 39.6686 42.027 36.4758 38.2541 35.569V29.8102L44.5968 33.1447C44.756 33.2283 44.9297 33.2696 45.103 33.2696C45.3286 33.2696 45.5533 33.1995 45.7427 33.0618C46.0778 32.8183 46.2456 32.4057 46.1756 31.9974L44.3429 21.3116L52.1065 13.7438C52.403 13.4547 52.5098 13.0223 52.3818 12.6285C52.2539 12.2346 51.9133 11.9475 51.5033 11.888L40.7741 10.3288L35.9761 0.606622C35.7926 0.235157 35.4144 0 35.0003 0C34.5861 0 34.2079 0.235157 34.0244 0.606622L29.2261 10.329L27.0109 10.651C26.4161 10.7372 26.0041 11.2894 26.0905 11.8842C26.1767 12.4789 26.7288 12.8915 27.3237 12.8044L30.1051 12.4003C30.4596 12.3487 30.766 12.1262 30.9245 11.805L35.0002 3.5469L39.0758 11.805C39.2342 12.126 39.5406 12.3487 39.8951 12.4003L49.0086 13.7245L42.414 20.1527C42.1576 20.4026 42.0405 20.7628 42.1011 21.1157L43.6579 30.1923C43.6579 30.1923 37.6726 27.0456 37.6722 27.0455L36.1483 26.2443C35.614 25.9634 35.1042 25.6016 34.4936 25.9069L26.3423 30.1925L27.899 21.1158C27.9596 20.7628 27.8425 20.4027 27.586 20.1528L20.9915 13.7247L22.9881 13.4346C23.5828 13.3483 23.9948 12.7961 23.9084 12.2014C23.822 11.6066 23.27 11.1946 22.6752 11.2811L18.497 11.8883C18.0871 11.9477 17.7467 12.2348 17.6184 12.6287C17.4904 13.0226 17.5972 13.4552 17.8938 13.7441L25.6575 21.3119L23.8246 31.9977C23.7548 32.406 23.9224 32.8186 24.2576 33.0621C24.5927 33.3054 25.0371 33.3374 25.4035 33.1449L31.7461 29.8104V35.5692C27.9734 36.4762 25.0824 39.6689 24.6264 43.5956H20.0969C19.496 43.5956 19.0087 44.0827 19.0087 44.6837V61.3395C15.1467 61.6997 12.1133 64.9577 12.1133 68.9123C12.1133 69.5133 12.6004 70.0004 13.2014 70.0004H45.1631C45.7639 70.0004 46.2512 69.5133 46.2512 68.9123C46.2512 68.3114 45.7641 67.8241 45.1631 67.8241H14.3992C14.9044 65.3491 17.0983 63.4814 19.7205 63.4814H20.0971H49.9031H50.2799C52.9019 63.4814 55.0958 65.3491 55.601 67.8241H49.5158C48.9146 67.8241 48.4276 68.3112 48.4276 68.9123C48.4276 69.5133 48.9146 70.0004 49.5158 70.0004H56.7987C57.3997 70.0004 57.8868 69.5133 57.8868 68.9123C57.8869 64.9574 54.8534 61.6994 50.9914 61.3393ZM33.9228 28.6659L35.0003 28.0993L36.0778 28.6659V35.3077C36.073 35.3077 36.0682 35.3077 36.0633 35.3077H33.9372C33.9323 35.3077 33.9275 35.3077 33.9227 35.3077V28.6659H33.9228ZM32.9427 37.5526C32.9545 37.5515 32.9662 37.5515 32.9778 37.5499C33.2956 37.5076 33.6166 37.4841 33.9372 37.4841H36.0633C36.3836 37.4841 36.7052 37.5072 37.0227 37.5499C37.0314 37.551 37.04 37.5506 37.0489 37.5517C40.1976 37.9846 42.7036 40.4609 43.1806 43.5955H26.8199C27.2965 40.4636 29.7982 37.9889 32.9427 37.5526ZM48.8152 61.3049H21.1853V45.7716H25.6497H44.3509H48.8152V61.3049Z" fill="#0082FB"/>
  </g>
  <defs>
    <clipPath id="clip0_1_1065">
      <rect width="70" height="70" fill="white"/>
    </clipPath>
  </defs>
</svg>