<svg xmlns="http://www.w3.org/2000/svg" width="36" height="36" viewBox="0 0 36 36" fill="none">
  <path d="M4.5 22.2126C4.5 24.7508 6.55758 26.8084 9.09574 26.8084C11.6339 26.8084 13.6915 24.7508 13.6915 22.2126C13.6915 19.6745 11.6339 17.6169 9.09574 17.6169C6.55758 17.6169 4.5 19.6745 4.5 22.2126Z" fill="white"/>
  <path d="M20.5851 22.2126C20.5851 24.7508 22.6427 26.8084 25.1808 26.8084C27.719 26.8084 29.7766 24.7508 29.7766 22.2126C29.7766 19.6745 27.719 17.6169 25.1809 17.6169C22.6427 17.6169 20.5851 19.6745 20.5851 22.2126Z" fill="white"/>
  <path d="M6.2234 8.99988C11.2997 8.99988 15.4149 13.115 15.4149 18.1914C15.4149 20.4402 14.1448 24.755 11.9681 25.9313M22.3085 8.99988C27.3848 8.99988 31.5 13.115 31.5 18.1914C31.5 20.4402 30.2299 24.755 28.0532 25.9313M4.5 22.2126C4.5 24.7508 6.55758 26.8084 9.09574 26.8084C11.6339 26.8084 13.6915 24.7508 13.6915 22.2126C13.6915 19.6745 11.6339 17.6169 9.09574 17.6169C6.55758 17.6169 4.5 19.6745 4.5 22.2126ZM20.5851 22.2126C20.5851 24.7508 22.6427 26.8084 25.1808 26.8084C27.719 26.8084 29.7766 24.7508 29.7766 22.2126C29.7766 19.6745 27.719 17.6169 25.1809 17.6169C22.6427 17.6169 20.5851 19.6745 20.5851 22.2126Z" stroke="white" stroke-width="2.13158" stroke-linecap="round" stroke-linejoin="round"/>
</svg>