<svg xmlns="http://www.w3.org/2000/svg" width="60" height="60" viewBox="0 0 60 60" fill="none">
  <path d="M49.5703 3.10547C47.9531 1.88672 46.1016 1.23047 44.2149 1.23047C39.0234 1.23047 34.8281 5.87109 34.6875 11.7891C34.6172 14.4844 35.4258 17.0742 36.9727 19.1367C35.8828 20.5898 35.1563 22.3125 34.8516 24.1523C33.5156 25.5352 31.6406 28.3828 30.1172 31.1367C28.4766 28.1719 26.4492 25.1133 25.0899 23.8594C24.7617 22.1367 24.0469 20.5078 23.0156 19.1367C24.5625 17.0742 25.3711 14.4844 25.3008 11.7891C25.1484 5.87109 20.9649 1.23047 15.7734 1.23047C13.8867 1.23047 12.0352 1.875 10.418 3.10547C3.66798 8.23828 0.75001 21.1875 1.3711 31.3359C1.92189 40.3828 5.06251 47.0156 10.207 50.0156C11.7539 50.918 13.4766 51.3867 15.2227 51.3867C20.7305 51.3867 25.0664 46.9922 25.3125 41.168C25.4297 38.2969 24.5742 35.5547 22.8867 33.4102C23.4961 32.6367 24 31.7695 24.3867 30.8555C25.4766 32.5664 26.9414 34.9336 27.7383 36.6211V56.2617C27.7383 57.5859 28.8047 58.6641 30.1289 58.6641C31.4531 58.6641 32.5195 57.5859 32.5195 56.2617V36.668C33.2695 35.0508 34.6641 32.7656 35.7305 31.0781C36.1055 31.9102 36.5742 32.6953 37.1367 33.4102C35.4492 35.5547 34.582 38.2969 34.7109 41.168C34.957 46.9922 39.293 51.3867 44.8008 51.3867C46.5352 51.3867 48.2695 50.9062 49.8164 50.0156C54.9609 47.0156 58.1016 40.3828 58.6524 31.3359C59.25 21.1875 56.332 8.23828 49.5703 3.10547ZM18.9727 36.1992C20.0274 37.4531 20.6016 39.1875 20.5195 40.957C20.3672 44.6133 17.6719 46.582 15.2109 46.582C14.3086 46.582 13.4297 46.3359 12.6094 45.8555C8.94142 43.7227 6.58595 38.3203 6.15235 31.0312C5.54298 21.0234 8.69532 10.4297 13.3242 6.91406C14.1094 6.31641 14.9414 6.01172 15.7852 6.01172C18 6.01172 20.4375 8.26172 20.5313 11.8945C20.5781 13.582 20.0508 15.1875 19.0664 16.418C17.8125 17.9648 17.8125 20.2969 19.0547 21.8203C20.0039 22.9922 20.5313 24.5391 20.5313 26.168C20.5313 27.8555 19.9688 29.4375 18.9609 30.6211C17.6133 32.2148 17.6133 34.6055 18.9727 36.1992ZM53.8594 31.043C53.4141 38.332 51.0586 43.7344 47.4024 45.8672C46.582 46.3477 45.7031 46.5938 44.8008 46.5938C42.3399 46.5938 39.6445 44.625 39.4922 40.9688C39.4219 39.1875 39.9844 37.4531 41.0391 36.2109C42.3984 34.6172 42.3984 32.2148 41.0508 30.6445C40.043 29.4609 39.4805 27.8789 39.4805 26.1914C39.4805 24.5625 40.0078 23.0273 40.957 21.8555C42.1992 20.3203 42.1992 18 40.9453 16.4531C39.9609 15.2344 39.4453 13.6289 39.4805 11.9414C39.5742 8.30859 42.0117 6.05859 44.2266 6.05859C45.082 6.05859 45.9024 6.36328 46.6875 6.96094C51.3164 10.4414 54.457 21.0352 53.8594 31.043Z" fill="#0082FB"/>
</svg>