<svg xmlns="http://www.w3.org/2000/svg" width="28" height="28" viewBox="0 0 28 28" fill="none">
  <g clip-path="url(#clip0_1_914)">
    <path d="M22.4002 5.13334L3.38351 12.4833C2.10017 12.95 2.10017 13.7667 3.15017 14L7.93351 15.5167L9.80017 21.1167C10.0335 21.7 9.91684 21.9333 10.5002 21.9333C10.9668 21.9333 11.2002 21.7 11.4335 21.4667C11.5502 21.35 12.6002 20.3 13.7668 19.1333L18.6668 22.75C19.6002 23.2167 20.1835 22.9833 20.4168 21.9333L23.6835 6.65C24.0335 5.36667 23.2168 4.66667 22.4002 5.13334ZM19.9502 8.63334L10.8502 16.9167L10.5002 20.7667L8.63351 15.1667L19.3668 8.4C19.8335 8.05 20.3002 8.28334 19.9502 8.63334Z" fill="white"/>
  </g>
  <defs>
    <clipPath id="clip0_1_914">
      <rect width="28" height="28" fill="white"/>
    </clipPath>
  </defs>
</svg>