<svg xmlns="http://www.w3.org/2000/svg" width="32" height="32" viewBox="0 0 32 32" fill="none">
  <path d="M26.2269 10.8532C26.1083 10.3962 25.8706 9.97895 25.5379 9.64396C25.2053 9.30898 24.7897 9.0683 24.3335 8.94652C21.5682 8.62038 18.7846 8.4734 16.0002 8.50652C13.2159 8.4734 10.4323 8.62038 7.66689 8.94652C7.21078 9.0683 6.79516 9.30898 6.46253 9.64396C6.12987 9.97895 5.89213 10.3962 5.77355 10.8532C5.47063 12.5518 5.32335 14.2745 5.33355 15.9998C5.32285 17.7341 5.47013 19.4657 5.77355 21.1732C5.89827 21.6228 6.13875 22.0317 6.47099 22.3593C6.80322 22.6869 7.21558 22.9216 7.66689 23.0398C10.4323 23.366 13.2159 23.513 16.0002 23.4798C18.7846 23.513 21.5682 23.366 24.3335 23.0398C24.7849 22.9216 25.1973 22.6869 25.5294 22.3593C25.8617 22.0317 26.1022 21.6228 26.2269 21.1732C26.5303 19.4657 26.6775 17.7341 26.6669 15.9998C26.6771 14.2745 26.5298 12.5518 26.2269 10.8532ZM13.8135 19.1865V12.8399L19.4002 15.9998L13.8135 19.1732V19.1865Z" fill="white"/>
</svg>